<?xml version="1.0" encoding="utf-8"?>
<!-- Generator: Adobe Illustrator 25.2.0, SVG Export Plug-In . SVG Version: 6.00 Build 0)  -->
<svg version="1.1" xmlns="http://www.w3.org/2000/svg" xmlns:xlink="http://www.w3.org/1999/xlink" x="0px" y="0px"
	 viewBox="0 0 306 300" style="enable-background:new 0 0 306 300;" xml:space="preserve">
<style type="text/css">
	.st0{display:none;}
	.st1{display:inline;fill:#FFFFFF;}
	.st2{display:inline;fill:#131022;}
	.st3{display:inline;fill:#585C7B;}
	.st4{display:inline;}
	.st5{fill:#131022;}
	.st6{fill:#585C7B;}
	.st7{display:inline;fill:#D4D7E5;}
	.st8{display:inline;fill:url(#SVGID_1_);}
</style>
<g id="Layer_1" xmlns:v="https://vecta.io/nano" class="st0">
	<path class="st1" d="M82.9,246.7c0,0,7.4-1,7.6,0.7s-5,4.4-5,4.4s-0.4-2.2-1.2-3.2S82.9,246.7,82.9,246.7L82.9,246.7z M58.7,263.8
		c6.5-1.4,24.5-5.7,20.5-17.8c-4.3-13.3-20.1-12.9-28-10.8c-7.8,2.1-21.5,11.6-17.3,22.1C38.4,268.7,52.5,265.1,58.7,263.8z"/>
	<path class="st2" d="M47.5,265.8c-5.6,0-11.4-1.7-14-8.3c-1.2-3.2-1-6.4,0.6-9.7c3.2-6.3,11.1-11.4,17-13c7.9-2.1,24-2.5,28.5,11.1
		c1,2.9,0.7,5.7-0.7,8.1c-3.9,6.8-16.2,9.4-20.2,10.3l-0.9,0.2C55.3,265,51.4,265.8,47.5,265.8L47.5,265.8z M59.9,234.5
		c-3.2,0-6.2,0.5-8.5,1.1c-4.9,1.3-13.2,6.1-16.5,12.5c-1.5,3.1-1.7,6.1-0.6,9c4.2,10.5,16.7,7.8,23.4,6.4c0.3-0.1,0.6-0.1,0.9-0.2
		c10.5-2.2,17.1-5.5,19.6-9.9c1.2-2.2,1.5-4.6,0.6-7.4C75.8,237.1,67.3,234.5,59.9,234.5z"/>
	<path class="st1" d="M70.5,262.2c5,0,9.1-4.1,9.1-9.1c0-5-4.1-9.1-9.1-9.1c-5,0-9.1,4.1-9.1,9.1C61.4,258.2,65.5,262.2,70.5,262.2z
		"/>
	<path class="st2" d="M70.5,262.7c-5.3,0-9.5-4.3-9.5-9.5s4.3-9.5,9.5-9.5s9.5,4.3,9.5,9.5C80.1,258.4,75.8,262.7,70.5,262.7z
		 M70.5,244.5c-4.8,0-8.6,3.9-8.6,8.6c0,4.8,3.9,8.6,8.6,8.6c4.8,0,8.6-3.9,8.6-8.6C79.2,248.4,75.3,244.5,70.5,244.5z"/>
	<path class="st1" d="M62.7,248.5c0,0-1.2-6.6,0-7s4.6,3.2,4.6,3.2s-1.6,0.6-2.6,1.5C63.7,247.1,62.7,248.5,62.7,248.5z"/>
	<path class="st2" d="M62.7,249L62.7,249c-0.3,0-0.4-0.2-0.4-0.4c0-0.1-0.3-1.7-0.5-3.4c-0.3-3.3,0.2-4,0.7-4.1
		c1.4-0.5,4.2,2.4,5.1,3.3c0.1,0.1,0.1,0.3,0.1,0.4s-0.1,0.3-0.3,0.3c0,0-1.5,0.5-2.4,1.4c-0.7,0.7-1.4,1.5-2,2.3
		C63,248.9,62.8,249,62.7,249L62.7,249z M62.8,241.9c0,0-0.4,0.4-0.1,3.4l0.3,2.2l1.4-1.6c0.7-0.6,1.5-1.1,2.1-1.3
		C65.1,243,63.4,241.7,62.8,241.9L62.8,241.9z M79.5,252.2c-0.1,0-0.1,0-0.2-0.1c-0.1-0.1-0.2-0.2-0.2-0.3c0,0-0.4-2.1-1.1-3.1
		l-1.3-1.8c-0.1-0.1-0.1-0.3-0.1-0.4s0.2-0.3,0.4-0.3c0.6-0.1,6.1-0.8,7.6,0.3c0.2,0.2,0.4,0.4,0.4,0.7c0.2,1.9-4.3,4.4-5.2,4.8
		C79.7,252.2,79.6,252.2,79.5,252.2L79.5,252.2z M77.8,247l0.9,1.2c0.5,0.8,0.9,2.1,1.1,2.8c1.9-1.1,4.3-2.8,4.3-3.7
		c0,0,0-0.1-0.1-0.1C83.2,246.7,80.1,246.8,77.8,247L77.8,247z"/>
	<path class="st3" d="M38,243.3c0,0-8.3,7.7-6.2,17c2.3,9.9,20.6,16.5,28.5,6.6c6.3-7.9-4.3-12.3-7.5-7.3
		C48.3,266.7,29,267.2,38,243.3L38,243.3z"/>
	<path class="st2" d="M49.3,272.3c-1.4,0-2.9-0.2-4.4-0.5c-6.8-1.5-12.4-6.2-13.5-11.3c-0.9-3.9-0.1-8.2,2.4-12.3
		c1.8-3.1,3.9-5.1,4-5.1c0.1-0.1,0.4-0.1,0.6,0s0.2,0.3,0.2,0.5c-3.7,9.7-3,16.6,1.9,19.1c3.8,1.9,9.9,0.4,12.1-3.2
		c1-1.6,2.9-2.5,5-2.3c2.2,0.2,4.1,1.5,4.9,3.2c0.9,2,0.3,4.4-1.7,6.9C58,270.5,54,272.3,49.3,272.3L49.3,272.3z M36.8,245.3
		c-2.2,2.7-6.1,8.5-4.6,15c1.1,4.8,6.4,9.2,12.9,10.7c6.1,1.4,11.6-0.2,14.8-4.2c2.2-2.8,2.1-4.8,1.5-6c-0.7-1.5-2.3-2.6-4.2-2.7
		c-1.8-0.1-3.3,0.6-4.2,1.9c-2.5,3.9-9,5.6-13.2,3.5c-2.4-1.2-4-3.5-4.5-6.5C34.8,253.7,35.3,249.8,36.8,245.3L36.8,245.3z
		 M55.7,254.1c-0.2,0-0.4-0.1-0.4-0.3c-0.1-0.2,0-0.5,0.2-0.6c0,0,0,0,0,0c3.5-1.3,9-0.4,9.2-0.4c0.2,0,0.4,0.2,0.4,0.5c0,0,0,0,0,0
		c0,0.2-0.3,0.4-0.5,0.4c-0.1,0-5.5-0.9-8.8,0.3C55.8,254.1,55.8,254.1,55.7,254.1L55.7,254.1z M81.5,260.8c-0.1,0-0.3-0.1-0.4-0.1
		c-0.7-0.8-4.2-2.8-5.5-3.5c-0.2-0.1-0.3-0.4-0.2-0.6s0.4-0.3,0.6-0.2c0.5,0.3,4.9,2.7,5.7,3.8c0.1,0.2,0.1,0.5-0.1,0.6
		C81.7,260.8,81.6,260.8,81.5,260.8L81.5,260.8z M56.4,256.9c-0.2,0-0.3-0.1-0.4-0.3c-0.1-0.2,0-0.5,0.2-0.6
		c3.4-1.6,8.3-1.5,8.5-1.5c0.2,0,0.4,0.2,0.4,0.4c0,0.2-0.2,0.4-0.4,0.4c-0.1,0-4.9-0.1-8.1,1.5C56.6,256.9,56.5,256.9,56.4,256.9
		L56.4,256.9z M80.3,265.4c-0.2,0-0.4-0.1-0.4-0.3c-0.8-2.6-5.2-6.2-5.3-6.3c-0.2-0.1-0.2-0.4-0.1-0.6s0.4-0.2,0.6-0.1
		s4.7,3.8,5.6,6.7c0.1,0.2-0.1,0.5-0.3,0.6C80.4,265.4,80.3,265.4,80.3,265.4L80.3,265.4z"/>
	<path class="st3" d="M81.8,159.4c-0.2,0-0.4-0.2-0.4-0.4c0-0.2,0.2-0.4,0.4-0.4l152.8-1.5c0.2,0,0.4,0.2,0.4,0.4
		c0,0.2-0.2,0.4-0.4,0.4L81.8,159.4L81.8,159.4z"/>
	<path class="st1" d="M190.1,241.4l34.7-0.4l-2.8,10.5l-31.9,0.1L190.1,241.4L190.1,241.4z"/>
	<g class="st4">
		<path class="st5" d="M190.1,252c-0.1,0-0.2-0.1-0.3-0.1c-0.1-0.1-0.1-0.2-0.1-0.3v-10.1c0-0.2,0.2-0.4,0.4-0.4l34.7-0.4
			c0.1,0,0.3,0.1,0.4,0.2s0.1,0.3,0.1,0.4l-2.8,10.5c-0.1,0.2-0.2,0.3-0.4,0.3L190.1,252L190.1,252z M190.5,241.9v9.3l31.1-0.1
			l2.6-9.6L190.5,241.9z"/>
		<path class="st5" d="M107.6,112.9c0,0-10.6,14.9-8.2,26.9s16.2,20,37.6,19.2c-1.8,18,1.5,82.9,1.5,82.9l51.7-0.5l30-0.4v-87.3
			l-41.9-32.3C178.2,121.4,158.2,113.4,107.6,112.9L107.6,112.9z"/>
		<path class="st5" d="M138.4,242.4c-0.2,0-0.4-0.2-0.4-0.4c0-0.7-3.2-64-1.5-82.5c-10.2,0.3-19-1.4-25.6-4.9
			c-6.5-3.5-10.7-8.6-11.9-14.7c-1.3-6.3,1.1-13.4,3.2-18.2c2.4-5.2,5-9,5.1-9c0.1-0.1,0.2-0.2,0.4-0.2c49.4,0.5,70,8.2,70.8,8.5
			c0,0,0.1,0,0.1,0.1l41.9,32.3c0.1,0.1,0.2,0.2,0.2,0.4V241c0,0.2-0.2,0.4-0.4,0.4l-30,0.4L138.4,242.4L138.4,242.4z M136.9,158.6
			c0.1,0,0.2,0.1,0.3,0.1s0.1,0.2,0.1,0.4c-1.7,17,1.2,76.8,1.4,82.4l51.3-0.5l29.6-0.4v-86.6L178,121.8c-1.4-0.5-21.8-7.9-70.2-8.5
			c-1.2,1.8-10.2,15.4-8,26.3c1.2,5.9,5.1,10.7,11.5,14.1C117.8,157.3,126.7,158.9,136.9,158.6L136.9,158.6z"/>
		<path class="st5" d="M190.1,241.9c-0.2,0-0.4-0.2-0.4-0.4l-2.1-88.2L160.9,129c-0.2-0.2-0.2-0.4,0-0.6s0.4-0.2,0.6,0l26.7,24.3
			c0.1,0.1,0.1,0.2,0.1,0.3l2.1,88.4C190.5,241.7,190.4,241.9,190.1,241.9L190.1,241.9z"/>
	</g>
	<path class="st1" d="M134.2,242l62.9-0.5l-2.4,10.1l-57.3,0.2L134.2,242z"/>
	<path class="st2" d="M137.4,252.2c-0.2,0-0.4-0.1-0.4-0.3l-3.2-9.8c0-0.1,0-0.3,0.1-0.4s0.2-0.2,0.4-0.2l62.9-0.5
		c0.1,0,0.3,0.1,0.4,0.2s0.1,0.2,0.1,0.4l-2.4,10.1c-0.1,0.2-0.2,0.4-0.4,0.4L137.4,252.2L137.4,252.2z M134.8,242.4l2.9,8.9
		l56.6-0.2l2.2-9.2L134.8,242.4z"/>
	<path class="st1" d="M217.1,251.6v6.9l18.3,13l-45.3,0.4v-20.3H217.1z"/>
	<path class="st2" d="M190.1,272.3c-0.1,0-0.2-0.1-0.3-0.1c-0.1-0.1-0.1-0.2-0.1-0.3v-20.3c0-0.2,0.2-0.4,0.4-0.4h27
		c0.2,0,0.4,0.2,0.4,0.4v6.7l18.1,12.8c0.1,0.1,0.2,0.3,0.2,0.5s-0.2,0.3-0.4,0.3L190.1,272.3L190.1,272.3z M190.5,252v19.4L234,271
		l-17.2-12.2c-0.1-0.1-0.2-0.2-0.2-0.4V252L190.5,252L190.5,252L190.5,252z"/>
	<path class="st1" d="M138.7,251.7l51.4-0.2v7.6l18.2,12.5l-69.1,0.9L138.7,251.7z"/>
	<path class="st2" d="M139.2,272.9c-0.2,0-0.4-0.2-0.4-0.4l-0.4-20.7c0-0.1,0-0.2,0.1-0.3s0.2-0.1,0.3-0.1l51.4-0.2
		c0.1,0,0.2,0.1,0.3,0.1c0.1,0.1,0.1,0.2,0.1,0.3v7.4l18,12.3c0.1,0.1,0.2,0.3,0.2,0.5c-0.1,0.2-0.2,0.3-0.4,0.3L139.2,272.9
		L139.2,272.9z M139.2,252.2l0.4,19.8l67.2-0.8l-17-11.7c-0.1-0.1-0.2-0.2-0.2-0.4V252L139.2,252.2z"/>
	<path class="st1" d="M148.1,102.4l1.3-14.9l-1-15.6l1,15.6l11.4-8.5c0,0-14.9-20.7-21.5-21.8c-3.8,2.7-6.8-1.7-6.8-1.7
		s-20.2,0.7-25.6,19.9c11.7,3.8,20.2,6,20.2,6l2.4-9.2l-5.3,25.4L148.1,102.4z"/>
	<path class="st2" d="M148.1,102.8L148.1,102.8L124.2,98c-0.1,0-0.2-0.1-0.3-0.2s-0.1-0.2-0.1-0.3l3.2-15.6H127
		c-0.1,0-8.7-2.3-20.2-6c-0.2-0.1-0.4-0.3-0.3-0.5c2.8-10.1,9.8-15.1,15.1-17.4c5.7-2.6,10.7-2.8,11-2.8c0.1,0,0.3,0.1,0.4,0.2
		c0,0,1.4,2,3.3,2.3c1,0.1,1.9-0.1,2.8-0.7c0.1-0.1,0.2-0.1,0.3-0.1c6.7,1.1,21.2,21.1,21.8,22c0.1,0.2,0.1,0.5-0.1,0.6l-11.3,8.4
		l-1.3,14.7c0,0.1-0.1,0.2-0.2,0.3C148.2,102.8,148.1,102.8,148.1,102.8L148.1,102.8z M124.8,97.2l22.8,4.6l1.3-14.3l-1-15.6v0
		c0-0.2,0.2-0.4,0.4-0.4s0.4,0.2,0.5,0.4l1,14.8l10.4-7.8c-2-2.7-14.8-20-20.7-21.2c-1.1,0.7-2.2,1-3.3,0.8
		c-1.9-0.3-3.3-1.9-3.8-2.5c-1,0.1-5.5,0.5-10.4,2.7c-7.3,3.3-12.2,8.8-14.4,16.4c9.9,3.2,17.5,5.3,19.3,5.8l2.3-8.8
		c0.1-0.2,0.3-0.4,0.5-0.3s0.4,0.3,0.3,0.5L124.8,97.2L124.8,97.2z"/>
	<path class="st1" d="M106.9,75.4c0,0-7.2,32.6-5.8,35s40.5,10.3,50.7,10.7s7.2-14.8,4.1-16.5c-3.1-1.8-31.6-6.9-31.6-6.9l2.9-16.2
		C127.1,81.4,106.9,75.4,106.9,75.4z"/>
	<path class="st2" d="M152.2,121.5h-0.4c-5.5-0.2-18.4-2.4-28.7-4.6c-6.4-1.3-21.3-4.6-22.3-6.3c-0.3-0.4-1-1.6,2.3-18.7l3.4-16.6
		c0-0.1,0.1-0.2,0.2-0.3s0.2-0.1,0.4,0l20.2,6c0.2,0.1,0.4,0.3,0.3,0.5l-2.8,15.7c3.8,0.7,28.4,5.2,31.3,6.9c2.2,1.3,4,7.8,2.8,12.3
		C158.2,118.7,156.5,121.5,152.2,121.5z M107.2,75.9c-2.8,12.6-6.7,32.5-5.7,34.2c0.5,0.8,7.6,2.9,21.8,5.9
		c10.3,2.1,23.1,4.3,28.5,4.6c3.2,0.1,5.3-1.4,6.2-4.4c0.6-2,0.5-4.5-0.1-7c-0.5-2.1-1.4-3.9-2.3-4.3c-2.4-1.4-21.7-5.1-31.5-6.8
		c-0.2,0-0.4-0.3-0.4-0.5l2.8-15.7L107.2,75.9L107.2,75.9z"/>
	<path class="st1" d="M149.8,87.3l9-6.9l7,11.9l-7,12.3l-10.8-2.4L149.8,87.3L149.8,87.3z"/>
	<g class="st4">
		<path class="st5" d="M158.9,105.1L158.9,105.1l-10.9-2.4c-0.2-0.1-0.4-0.3-0.4-0.5l1.8-15c0-0.1,0.1-0.2,0.2-0.3l9-6.9
			c0.1-0.1,0.2-0.1,0.4-0.1s0.2,0.1,0.3,0.2l7,11.9c0.1,0.1,0.1,0.3,0,0.4l-7,12.3C159.2,105,159,105.1,158.9,105.1L158.9,105.1z
			 M148.6,101.9l10.1,2.2l6.7-11.8L158.7,81l-8.5,6.5C150.2,87.5,148.6,101.9,148.6,101.9z M150.2,57.2c6.6-2.2,4-14.7,0.4-19.7
			c-6.2-8.9-21.6-7.4-25.5,4.6c-0.9,2.6-6.2,3.8-4.1,7.9c1.5,2.9,7.3,1.4,7.3,1.4S146.3,58.5,150.2,57.2z"/>
		<path class="st5" d="M148.9,57.8c-5.5,0-19.1-5.2-20.7-5.8c-1,0.2-6.2,1.3-7.7-1.7c-1.5-3,0.5-4.7,2.1-6c0.9-0.7,1.7-1.5,2-2.3
			c1.9-5.7,6.5-9.6,12.3-10.5c5.6-0.8,11,1.4,14,5.7c2.7,3.9,4.7,11.5,3.1,16.3c-0.7,2.1-2,3.5-3.8,4.1
			C150,57.8,149.5,57.8,148.9,57.8L148.9,57.8z M128.3,51.1c0.1,0,0.1,0,0.1,0c4.5,1.7,16,5.8,20.4,5.8c0.5,0,0.9-0.1,1.2-0.1
			c1.5-0.5,2.6-1.7,3.2-3.5c1.4-4.4-0.4-11.8-3-15.5c-2.9-4-7.9-6.1-13.1-5.3c-5.5,0.8-9.8,4.5-11.6,9.9c-0.4,1.1-1.3,1.9-2.3,2.7
			c-1.6,1.4-3.1,2.6-1.9,4.9c0.7,1.3,2.4,1.6,3.8,1.5c1.6,0,3-0.4,3-0.4S128.3,51.1,128.3,51.1z"/>
	</g>
	<path class="st1" d="M132.6,55.5l1.6-4.5c0,0-1.6-2.3-1.6-3.5s-2.5-0.4-1.8-3c0.7-2.6,4,0.3,5.6,1s4.7-0.9,6.3-1
		c1.1-0.1,2.2,1,2.5,1.7c0.6,1.4-0.2,3.5-1.9,4.4c-1.7,1-4.1,1.1-4.1,1.1l-0.2,5.8c0,0-0.4,1.2-3.6,0.3
		C132.1,56.8,132.6,55.5,132.6,55.5z"/>
	<path class="st2" d="M137.3,58.5c-0.5,0-1.2-0.1-2.1-0.3c-1.5-0.4-2.5-1-2.9-1.8c-0.3-0.5-0.2-1-0.1-1l1.5-4.3
		c-0.4-0.6-1.6-2.4-1.5-3.6c0-0.1,0-0.2-0.5-0.4c-0.7-0.3-1.8-0.7-1.2-2.7c0.2-0.7,0.5-1.1,1-1.3c1.1-0.4,2.6,0.4,3.9,1.2l1.4,0.7
		c0.9,0.4,2.5-0.1,3.8-0.5c0.8-0.3,1.6-0.5,2.3-0.5c1.3-0.1,2.6,1.1,2.9,1.9c0.7,1.6-0.2,3.9-2.1,5c-1.3,0.8-3.1,1.1-3.9,1.2
		l-0.2,5.4c0,0,0,0.1,0,0.1C139.3,57.6,139,58.5,137.3,58.5L137.3,58.5z M133,55.6c0,0.1-0.1,1,2.5,1.7c2.1,0.6,2.9,0.2,3,0l0.2-5.7
		c0-0.2,0.2-0.4,0.4-0.4c0,0,2.4-0.1,3.9-1.1c1.5-0.9,2.3-2.6,1.7-3.8c-0.3-0.6-1.2-1.5-2.1-1.4c-0.5,0-1.3,0.3-2.1,0.5
		c-1.5,0.5-3.2,1-4.5,0.5c-0.4-0.2-1-0.5-1.5-0.8c-1-0.6-2.4-1.4-3.1-1.2c-0.1,0-0.3,0.1-0.5,0.7c-0.3,1.2,0.1,1.4,0.7,1.6
		c0.4,0.2,1.1,0.5,1.1,1.3s0.9,2.4,1.5,3.2c0.1,0.1,0.1,0.3,0.1,0.4L133,55.6L133,55.6z M305.5,122.1H6.3c-0.2,0-0.4-0.2-0.4-0.4
		c0-0.2,0.2-0.4,0.4-0.4h299.2c0.2,0,0.4,0.2,0.4,0.4C306,121.9,305.8,122.1,305.5,122.1L305.5,122.1z"/>
	<g class="st4">
		<path class="st6" d="M81.3,121.6L39.4,282.5l0.9,0.2l41.9-160.9C82.2,121.8,81.3,121.6,81.3,121.6z"/>
		<path class="st6" d="M44.8,121.5l-0.8,0.3l55,167.7l0.8-0.3L44.8,121.5L44.8,121.5z M231.8,121.6l-0.8,0.3l55.9,167.7l0.8-0.3
			L231.8,121.6L231.8,121.6z"/>
		<path class="st6" d="M269.3,121.5l-41.9,158.7l0.9,0.2l41.9-158.7C270.1,121.8,269.3,121.5,269.3,121.5z"/>
	</g>
	<path class="st2" d="M23.1,102.2c-0.2,0-0.4-0.1-0.4-0.3S17.1,88,9.4,84.5c-0.2-0.1-0.3-0.4-0.2-0.6c0.1-0.2,0.4-0.3,0.6-0.2
		c3.4,1.5,6.7,5,9.9,10.4c2.4,4,3.8,7.5,3.8,7.6c0.1,0.2,0,0.5-0.2,0.6C23.2,102.2,23.2,102.2,23.1,102.2L23.1,102.2z"/>
	<path class="st3" d="M9.6,84.1c0,0-6-9.6-8.4-6.8C-2.1,81.1,9.6,84.1,9.6,84.1z"/>
	<path class="st2" d="M9.6,84.5H9.5c-0.8-0.2-8.3-2.2-9.3-5.2C0,78.5,0.2,77.7,0.8,77c0.4-0.5,1-0.7,1.6-0.7c1.3,0.1,2.9,1.4,5,3.9
		c1.5,1.8,2.6,3.5,2.6,3.6c0.1,0.2,0.1,0.4,0,0.5C9.9,84.5,9.8,84.5,9.6,84.5z M2.2,77.2c-0.3,0-0.5,0.1-0.7,0.4
		c-0.4,0.5-0.6,1-0.4,1.5c0.6,1.8,4.9,3.5,7.5,4.3C7,81.1,4.1,77.3,2.2,77.2C2.3,77.2,2.3,77.2,2.2,77.2L2.2,77.2z"/>
	<path class="st3" d="M17.4,91.3C15.3,86.7,9,95.5,9,95.5S18.6,93.9,17.4,91.3z"/>
	<g class="st4">
		<path class="st5" d="M9.5,96c-0.2,0-0.3-0.1-0.4-0.2c-0.1-0.2-0.1-0.3,0-0.5c0.4-0.6,4.3-6,7.2-5.7c0.9,0.1,1.5,0.6,2,1.6
			c0.2,0.4,0.2,0.9,0,1.3C17.1,94.6,10.3,95.9,9.5,96C9.5,96,9.5,96,9.5,96z M16.1,90.4c-1.7,0-4.2,2.7-5.6,4.4
			c2.7-0.6,6.3-1.7,6.9-2.8c0.1-0.2,0.1-0.3,0-0.5c-0.3-0.7-0.7-1-1.2-1.1C16.2,90.4,16.1,90.4,16.1,90.4L16.1,90.4z M27.5,66.5
			c1.1,14.2,4.3,35.5,4.3,35.5L27.5,66.5z"/>
		<path class="st5" d="M31.7,102.5c-0.2,0-0.4-0.1-0.4-0.4c0-0.2-3.2-21.5-4.3-35.5c0-0.2,0.2-0.4,0.4-0.5s0.4,0.2,0.5,0.4
			c1.1,14,4.3,35.2,4.3,35.5C32.2,102.2,32,102.4,31.7,102.5C31.8,102.5,31.8,102.5,31.7,102.5L31.7,102.5L31.7,102.5z"/>
	</g>
	<path class="st3" d="M26.8,53.1c1.8-0.2,7.1,15.7,0.5,14.9C21.5,67.3,26.8,53.1,26.8,53.1z"/>
	<path class="st2" d="M27.7,68.4c-0.1,0-0.3,0-0.5,0c-1-0.1-1.8-0.6-2.4-1.5c-2.3-3.8,1.3-13.6,1.5-14c0.1-0.1,0.2-0.3,0.4-0.3
		c0.5-0.1,1,0.3,1.5,1.2c1.6,2.6,3.9,10.2,2,13.3C29.6,68,28.8,68.4,27.7,68.4z M27,53.7c-0.3,0.9-0.9,2.8-1.4,4.9
		c-0.8,3.8-0.8,6.5,0,7.8c0.4,0.6,1,1,1.7,1.1c1.4,0.2,2.3-0.5,2.6-2.1C30.7,61.5,28.2,54.8,27,53.7L27,53.7z M28.2,75.1
		c-0.2,0-0.3-0.1-0.4-0.2c0-0.1-3-5-7.9-5.4c-4.7-0.4-5.7-0.1-5.7,0c-0.2,0.1-0.5,0-0.6-0.2c-0.1-0.2,0-0.5,0.2-0.6
		c0.1-0.1,1.2-0.4,6.1-0.1c5.3,0.4,8.4,5.6,8.5,5.8s0.1,0.5-0.1,0.6C28.4,75.1,28.3,75.1,28.2,75.1L28.2,75.1z"/>
	<path class="st3" d="M13.9,68.5c-0.9-6-9.9,1.2-9.9,1.2S14.6,72.6,13.9,68.5z"/>
	<path class="st2" d="M10.5,71.2c-0.9,0-1.7-0.1-2.6-0.2c-2.1-0.3-3.9-0.8-4-0.8c-0.1,0-0.3-0.2-0.3-0.3c0-0.2,0-0.3,0.1-0.4
		c0.2-0.2,5.8-4.6,8.8-3.5c1,0.4,1.5,1.2,1.8,2.6c0.1,0.8-0.1,1.4-0.6,1.9C13.1,70.9,12,71.2,10.5,71.2L10.5,71.2z M5.1,69.5
		c2.4,0.6,6.8,1.3,8.1,0.1c0.3-0.3,0.4-0.6,0.3-1.1c-0.1-1-0.5-1.6-1.2-1.9C10.5,66,6.9,68.2,5.1,69.5L5.1,69.5z M29,82
		c-0.1,0-0.1,0-0.2-0.1c-0.2-0.1-0.3-0.4-0.2-0.6s2.6-5.2,8.9-8.6c4.7-2.6,7.4-3.4,7.4-3.4c0.2-0.1,0.5,0.1,0.6,0.3
		c0.1,0.2-0.1,0.5-0.3,0.6c0,0-2.7,0.8-7.3,3.3c-6,3.3-8.5,8.2-8.5,8.2C29.4,81.9,29.2,82,29,82L29,82z"/>
	<path class="st3" d="M45.4,69.8c-2-7.2,14.6-2.7,14.6-2.7S46.8,74.9,45.4,69.8z"/>
	<path class="st2" d="M48.2,72c-0.6,0-1.2-0.1-1.7-0.3c-0.8-0.3-1.3-0.9-1.6-1.8c-0.4-1.4-0.1-2.5,0.6-3.2c1.3-1.3,4.2-1.7,8.5-1.2
		c3.2,0.4,6,1.2,6,1.2c0.2,0.1,0.3,0.2,0.3,0.4s-0.1,0.4-0.2,0.4C59.9,67.7,52.6,72,48.2,72z M50.6,66.2c-1.9,0-3.6,0.3-4.4,1.1
		c-0.6,0.6-0.7,1.3-0.4,2.4c0.1,0.6,0.5,1,1,1.2c1.4,0.6,4,0,7.7-1.5c1.7-0.7,3.3-1.5,4.3-2.1C56.7,66.7,53.4,66.2,50.6,66.2
		L50.6,66.2z M41,102.5c-0.2,0-0.4-0.2-0.4-0.4c0-0.4-0.3-9.4,3.2-12.1c0.2-0.1,0.5-0.1,0.6,0.1s0.1,0.5-0.1,0.6
		c-3.1,2.4-2.8,11.3-2.8,11.4C41.4,102.3,41.3,102.5,41,102.5L41,102.5z"/>
	<path class="st3" d="M55.5,81.8c0,0-15.9,3.2-11.8,8.4C46.5,93.8,55.5,81.8,55.5,81.8z"/>
	<path class="st2" d="M45.1,91.3c-0.7,0-1.3-0.3-1.7-0.8c-0.8-1-1-1.9-0.6-2.9c1.4-3.9,12.2-6.1,12.7-6.2c0.2,0,0.4,0,0.5,0.2
		c0.1,0.2,0.1,0.4,0,0.5C55.6,82.5,48.9,91.3,45.1,91.3L45.1,91.3L45.1,91.3z M54.4,82.5c-3.5,0.8-9.9,2.9-10.8,5.4
		c-0.2,0.7-0.1,1.3,0.5,2.1c0.3,0.3,0.6,0.5,1,0.5C47.6,90.4,52.1,85.4,54.4,82.5z"/>
	<path class="st3" d="M37,86c3.7-1.8,4.5,9.1,4.5,9.1S33.4,87.7,37,86z"/>
	<path class="st2" d="M41.6,95.6c-0.1,0-0.2,0-0.3-0.1c-0.1-0.1-1.5-1.4-2.9-3c-2-2.3-2.9-4.1-2.6-5.3c0.1-0.7,0.5-1.2,1.2-1.5
		c0.7-0.3,1.4-0.3,2,0.1c1.1,0.7,2,2.4,2.6,5.4c0.4,2.1,0.6,4,0.6,4.1c0,0.2-0.1,0.4-0.2,0.4C41.7,95.5,41.6,95.6,41.6,95.6
		L41.6,95.6z M37.2,86.4c-0.4,0.2-0.6,0.4-0.7,0.8c-0.2,1.7,2.6,4.9,4.4,6.7c-0.3-2.5-1.1-6.6-2.6-7.5C38,86.2,37.7,86.2,37.2,86.4z
		"/>
	<path class="st7" d="M46,101.8H19.1v19.9H46V101.8z"/>
	<path class="st2" d="M46,122.1H19.1c-0.2,0-0.4-0.2-0.4-0.4v-19.9c0-0.2,0.2-0.4,0.4-0.4H46c0.2,0,0.4,0.2,0.4,0.4v19.9
		C46.5,121.9,46.3,122.1,46,122.1z M19.5,121.2h26v-19.1h-26V121.2z"/>
	
		<linearGradient id="SVGID_1_" gradientUnits="userSpaceOnUse" x1="148.059" y1="208.2815" x2="249.949" y2="208.2815" gradientTransform="matrix(1 0 0 -1 0 302)">
		<stop  offset="0" style="stop-color:#6366F1"/>
		<stop  offset="0.5" style="stop-color:#8B5CF6"/>
		<stop  offset="1" style="stop-color:#D946EF"/>
	</linearGradient>
	<path class="st8" d="M148.1,121.7l27.6-56h74.3l-24.4,56H148.1L148.1,121.7z"/>
	<path class="st2" d="M225.5,122.1h-77.5c-0.1,0-0.3-0.1-0.4-0.2s-0.1-0.3,0-0.4l27.6-56c0.1-0.1,0.2-0.2,0.4-0.2h74.3
		c0.1,0,0.3,0.1,0.4,0.2c0.1,0.1,0.1,0.3,0,0.4l-24.4,56C225.9,122.1,225.7,122.1,225.5,122.1L225.5,122.1z M148.8,121.3h76.5
		l24.1-55.1h-73.3L148.8,121.3z"/>
	<path class="st1" d="M205.9,91c0,0-2.9-0.8-4.9,0.7c-0.9,0.6-3.7,2.8-2.2,4.6s4.2,0.2,5.2-1.3C205,93.3,205.9,91,205.9,91z"/>
	<path class="st2" d="M200.4,97.5c-0.8,0-1.5-0.3-2-1c-0.4-0.5-0.6-1.1-0.5-1.7c0.2-1.5,1.8-2.9,2.8-3.5c2.2-1.5,5.1-0.7,5.3-0.7
		c0.1,0,0.2,0.1,0.3,0.2c0.1,0.1,0.1,0.2,0,0.4c0,0.1-0.9,2.4-1.9,4c-0.7,1.1-2.3,2.3-3.8,2.4L200.4,97.5L200.4,97.5z M204,91.3
		c-0.9,0-1.9,0.1-2.8,0.8c-0.5,0.4-2.2,1.7-2.4,2.9c-0.1,0.4,0.1,0.7,0.3,1c0.3,0.4,0.9,0.7,1.4,0.6c1.2-0.1,2.5-1,3.1-2
		c0.7-1.1,1.3-2.6,1.6-3.3C204.9,91.3,204.5,91.3,204,91.3z"/>
	<path class="st3" d="M283.4,116.5L283.4,116.5c-0.3,0-0.5-0.3-0.4-0.5l9.8-75.5l-44.2-24.1c-0.2-0.1-0.3-0.4-0.2-0.6
		s0.4-0.3,0.6-0.2l44.5,24.2c0.1,0.1,0.2,0.3,0.2,0.4l-9.8,75.8C283.9,116.3,283.6,116.5,283.4,116.5L283.4,116.5z"/>
	<path class="st7" d="M248.8,16l-21.5,9.1l21.9,13.6C249.2,38.7,248.8,16,248.8,16z"/>
	<path class="st2" d="M249.2,39.2c-0.1,0-0.1,0-0.2-0.1L227,25.5c-0.1-0.1-0.2-0.2-0.2-0.4s0.1-0.3,0.3-0.4l21.5-9.1
		c0.1-0.1,0.3,0,0.4,0c0.1,0.1,0.2,0.2,0.2,0.4l0.4,22.7c0,0.1-0.1,0.3-0.2,0.4C249.3,39.1,249.3,39.2,249.2,39.2L249.2,39.2z
		 M228.2,25.2l20.5,12.7l-0.4-21.3L228.2,25.2L228.2,25.2z"/>
	<path class="st1" d="M237.9,38.5c3.2,0,5.7-2.6,5.7-5.7c0-3.2-2.6-5.7-5.7-5.7c-3.2,0-5.7,2.6-5.7,5.7S234.8,38.5,237.9,38.5z"/>
	<path class="st2" d="M237.9,38.9c-3.4,0-6.1-2.7-6.1-6.1s2.7-6.1,6.1-6.1s6.1,2.7,6.1,6.1C244.1,36.1,241.3,38.9,237.9,38.9z
		 M237.9,27.5c-2.9,0-5.2,2.3-5.2,5.2c0,2.9,2.3,5.2,5.2,5.2c2.9,0,5.2-2.3,5.2-5.2C243.2,29.9,240.8,27.5,237.9,27.5z"/>
	<path class="st7" d="M297.7,115.2h-28.9v6.1h28.9L297.7,115.2L297.7,115.2L297.7,115.2z"/>
	<path class="st2" d="M297.7,121.8h-28.9c-0.2,0-0.4-0.2-0.4-0.4v-6.1c0-0.2,0.2-0.4,0.4-0.4h28.9c0.2,0,0.4,0.2,0.4,0.4v6.1
		C298.1,121.6,297.9,121.8,297.7,121.8z M269.2,121h28v-5.2h-28V121z"/>
	<path class="st1" d="M80.4,21.4c5.4,3.1,12.2,1.2,15.3-4.1S97,5.1,91.6,2S79.4,0.8,76.3,6.1S75,18.3,80.4,21.4z"/>
	<path class="st3" d="M86,23.4c-2,0-4-0.5-5.8-1.6c-5.6-3.2-7.5-10.4-4.3-16C77.5,3.1,80,1.2,83,0.4s6.2-0.4,8.9,1.2
		s4.6,4.1,5.4,7.1c0.8,3,0.4,6.2-1.2,8.9c-1.5,2.7-4.1,4.6-7.1,5.4C88.1,23.2,87,23.4,86,23.4L86,23.4z M86,0.9
		c-0.9,0-1.9,0.1-2.8,0.4c-2.8,0.7-5.1,2.5-6.5,5c-3,5.2-1.2,11.8,4,14.7c2.5,1.4,5.4,1.8,8.2,1.1c2.8-0.7,5.1-2.5,6.5-5
		c1.4-2.5,1.8-5.4,1.1-8.2c-0.7-2.8-2.5-5.1-5-6.5C89.8,1.4,87.9,0.9,86,0.9z M86.7,17.1c-0.1,0-0.2,0-0.3-0.1l-4.6-4.3
		c-0.2-0.2-0.2-0.4,0-0.6c0.2-0.2,0.4-0.2,0.6,0l4.6,4.3c0.2,0.2,0.2,0.4,0,0.6C87,17,86.9,17.1,86.7,17.1z M90.8,15.8
		c-0.2,0-0.4-0.1-0.4-0.4l-1-5.5c0-0.2,0.1-0.5,0.4-0.5c0.2,0,0.5,0.1,0.5,0.3c0,0,0,0,0,0l1,5.5C91.2,15.5,91.1,15.7,90.8,15.8
		L90.8,15.8L90.8,15.8z M81.1,10.2c-0.2,0-0.4-0.2-0.4-0.4c0-0.1-0.1-2.4,1.4-3.1c1-0.5,1.9,0.2,2.5,0.9c0.6-0.8,1.6-2.2,2.7-2.4
		C88.5,5,89.6,7,89.8,7.5c0.1,0.2,0,0.5-0.2,0.6c-0.2,0.1-0.5,0-0.6-0.2c-0.4-0.8-1.2-1.8-1.6-1.7c-0.8,0.1-1.9,1.6-2.5,2.5
		c-0.1,0.1-0.2,0.2-0.4,0.2c-0.2,0-0.3-0.1-0.4-0.2c0,0-0.9-1.5-1.7-1.2c-0.9,0.4-0.9,2.2-0.9,2.3C81.6,10,81.4,10.2,81.1,10.2
		L81.1,10.2z"/>
	<path class="st1" d="M95.3,18.9c0,0,1.8,2.1,1,3.2c-0.8,1.1-9.9,4.4-11.2,3.9s-1.1-3.2-1.1-3.2s4.1,0.6,6.3-0.6
		C92.5,20.9,95.3,18.9,95.3,18.9L95.3,18.9z"/>
	<path class="st3" d="M85.4,26.5c-0.2,0-0.4,0-0.6-0.1c-1.5-0.7-1.4-3.4-1.4-3.7c0-0.1,0.1-0.2,0.2-0.3c0.1-0.1,0.2-0.1,0.4-0.1
		c0,0,4,0.6,6.1-0.6c2.2-1.2,4.9-3.2,5-3.2c0.2-0.1,0.4-0.1,0.6,0.1c0.2,0.2,2,2.4,1,3.8C95.8,23.5,88,26.5,85.4,26.5L85.4,26.5z
		 M84.4,23.3c0,0.8,0.2,2.1,0.9,2.3c1,0.4,9.9-2.6,10.7-3.7c0.4-0.6-0.2-1.7-0.7-2.3c-0.8,0.6-2.9,2-4.7,3
		C88.6,23.6,85.5,23.4,84.4,23.3L84.4,23.3z"/>
	<path class="st1" d="M95,23.4c0,0,2,1.3,1.1,2.4s-8.3,3.7-9.3,2.2c-0.7-1.1-0.4-2,0.6-2.2L95,23.4L95,23.4z"/>
	<path class="st3" d="M88.3,28.9h-0.2c-0.7,0-1.3-0.2-1.5-0.7c-0.6-0.9-0.5-1.5-0.4-1.9c0.2-0.5,0.6-0.8,1.2-1l7.6-2.4
		c0.1,0,0.3,0,0.4,0.1c0.1,0.1,1.4,0.9,1.5,1.9c0.1,0.4,0,0.8-0.3,1.1C95.7,27.1,90.8,28.9,88.3,28.9L88.3,28.9z M95,23.9l-7.4,2.3
		c-0.2,0.1-0.5,0.2-0.6,0.4c-0.1,0.3,0,0.7,0.3,1.1c0,0.1,0.2,0.2,0.8,0.2c2.4,0.1,7.1-1.8,7.7-2.5c0.1-0.1,0.1-0.3,0.1-0.4
		C95.9,24.6,95.3,24.1,95,23.9L95,23.9z"/>
	<path class="st1" d="M95.3,26.7l1.5,4.6c0,0-4,1.8-4.6,1.4c-0.6-0.4-2.4-4.2-2.4-4.2S95.3,26.7,95.3,26.7z"/>
	<path class="st3" d="M92.5,33.2c-0.3,0-0.4-0.1-0.6-0.1c-0.7-0.5-2.1-3.5-2.5-4.4c-0.1-0.1-0.1-0.2,0-0.4c0.1-0.1,0.1-0.2,0.3-0.2
		l5.5-1.8c0.1,0,0.2,0,0.3,0c0.1,0.1,0.2,0.1,0.2,0.3l1.5,4.6c0.1,0.2,0,0.4-0.2,0.5C94.5,32.8,93.2,33.2,92.5,33.2L92.5,33.2z
		 M92.4,32.3c0.4,0.1,2.3-0.5,3.9-1.2L95,27.2l-4.6,1.5C90.4,28.8,92.4,32.3,92.4,32.3z"/>
</g>
<g id="Layer_2">
	<image style="overflow:visible;" width="492" height="366" xlink:href="r.png"  transform="matrix(0.4918 0 0 0.4918 32.0164 60)">
	</image>
</g>
</svg>
